<svg width="25" height="31" viewBox="0 0 25 31" fill="none" xmlns="http://www.w3.org/2000/svg">
<path d="M22.8737 27.1232C21.5949 29.0451 20.239 30.9204 18.1744 30.9514C16.1097 30.9979 15.4472 29.727 13.1052 29.727C10.7478 29.727 10.0237 30.9204 8.06687 30.9979C6.04846 31.0754 4.52309 28.9521 3.22883 27.0767C0.594108 23.2485 -1.42431 16.1964 1.28746 11.4537C2.62793 9.0979 5.03154 7.60999 7.63545 7.5635C9.60765 7.5325 11.4874 8.91191 12.7046 8.91191C13.9064 8.91191 16.1868 7.25352 18.575 7.5015C19.5765 7.548 22.3807 7.90447 24.1834 10.5703C24.0447 10.6633 20.8399 12.5542 20.8707 16.4754C20.9169 21.1561 24.9538 22.7215 25 22.737C24.9538 22.8455 24.3529 24.9688 22.8737 27.1232ZM14.0759 2.32485C15.2007 1.03843 17.065 0.0619959 18.6058 0C18.8061 1.81338 18.0819 3.64226 17.0034 4.94417C15.9402 6.26158 14.1838 7.28452 12.4581 7.14503C12.227 5.36264 13.0898 3.50277 14.0759 2.32485Z" fill="#BFBFBF"/>
</svg>
