<svg width="19" height="19" viewBox="0 0 19 19" fill="none" xmlns="http://www.w3.org/2000/svg">
<path d="M11 2C11 1.44772 11.4477 1 12 1H17C17.5523 1 18 1.44772 18 2V7C18 7.55228 17.5523 8 17 8H12C11.4477 8 11 7.55228 11 7V2ZM11 12C11 11.4477 11.4477 11 12 11H17C17.5523 11 18 11.4477 18 12V17C18 17.5523 17.5523 18 17 18H12C11.4477 18 11 17.5523 11 17V12ZM1 12C1 11.4477 1.44772 11 2 11H7C7.55228 11 8 11.4477 8 12V17C8 17.5523 7.55228 18 7 18H2C1.44772 18 1 17.5523 1 17V12ZM1 2C1 1.44772 1.44772 1 2 1H7C7.55228 1 8 1.44772 8 2V7C8 7.55228 7.55228 8 7 8H2C1.44772 8 1 7.55228 1 7V2Z" stroke="#DE606A" stroke-width="2"/>
</svg>
