<svg width="22" height="26" viewBox="0 0 22 26" fill="none" xmlns="http://www.w3.org/2000/svg">
<path d="M5.86667 0C7.4226 0 8.91481 0.533808 10.015 1.48399C11.1152 2.43418 11.7333 3.7229 11.7333 5.06667H0C0 3.7229 0.618093 2.43418 1.71831 1.48399C2.81852 0.533808 4.31073 0 5.86667 0ZM10.032 8.63867L8.8 19H7.33333V20.2667C7.33333 20.9385 7.64238 21.5829 8.19249 22.058C8.74259 22.5331 9.4887 22.8 10.2667 22.8C11.0446 22.8 11.7907 22.5331 12.3408 22.058C12.891 21.5829 13.2 20.9385 13.2 20.2667V13.9333C13.2 12.5896 13.8181 11.3008 14.9183 10.3507C16.0185 9.40047 17.5107 8.86667 19.0667 8.86667H22L20.5333 10.1333L22 11.4H19.0667C18.2887 11.4 17.5426 11.6669 16.9925 12.142C16.4424 12.6171 16.1333 13.2615 16.1333 13.9333V20.2667C16.1333 21.6104 15.5152 22.8992 14.415 23.8493C13.3148 24.7995 11.8226 25.3333 10.2667 25.3333C8.71073 25.3333 7.21852 24.7995 6.11831 23.8493C5.01809 22.8992 4.4 21.6104 4.4 20.2667V19H2.93333L1.70133 8.63867C0.982666 8.00533 0.454667 7.22 0.190667 6.33333H11.5427C11.2787 7.22 10.7507 8.00533 10.032 8.63867ZM5.86667 10.1333C5.47768 10.1333 5.10463 10.2668 4.82958 10.5043C4.55452 10.7419 4.4 11.0641 4.4 11.4C4.4 11.7359 4.55452 12.0581 4.82958 12.2957C5.10463 12.5332 5.47768 12.6667 5.86667 12.6667C6.25565 12.6667 6.6287 12.5332 6.90376 12.2957C7.17881 12.0581 7.33333 11.7359 7.33333 11.4C7.33333 11.0641 7.17881 10.7419 6.90376 10.5043C6.6287 10.2668 6.25565 10.1333 5.86667 10.1333Z" fill="#DE606A"/>
</svg>
