<svg width="29" height="21" viewBox="0 0 29 21" fill="none" xmlns="http://www.w3.org/2000/svg">
<path d="M26.3636 0H11.8636C10.4136 0 9.22727 1.18125 9.22727 2.625V21L14.5 15.75H26.3636C27.8136 15.75 29 14.5688 29 13.125V2.625C29 1.18125 27.8136 0 26.3636 0ZM26.3636 13.125H13.4455L11.8636 14.7V2.625H26.3636V13.125ZM3.95455 2.625C3.16364 2.625 2.63636 3.15 2.63636 3.9375C2.63636 4.725 3.16364 5.25 3.95455 5.25H6.59091V2.625H3.95455ZM2.63636 7.875C1.84545 7.875 1.31818 8.4 1.31818 9.1875C1.31818 9.975 1.84545 10.5 2.63636 10.5H6.59091V7.875H2.63636ZM1.31818 13.125C0.527273 13.125 0 13.65 0 14.4375C0 15.225 0.527273 15.75 1.31818 15.75H6.59091V13.125H1.31818Z" fill="white" fill-opacity="0.7"/>
</svg>
