<svg width="26" height="27" viewBox="0 0 26 27" fill="none" xmlns="http://www.w3.org/2000/svg">
<path d="M25.8929 0V18.7004C25.8929 20.0891 25.3903 21.4209 24.4958 22.4029C23.6013 23.3848 22.3881 23.9365 21.1231 23.9365C19.8581 23.9365 18.6449 23.3848 17.7504 22.4029C16.8559 21.4209 16.3534 20.0891 16.3534 18.7004C16.3534 17.3117 16.8559 15.9799 17.7504 14.9979C18.6449 14.0159 19.8581 13.4643 21.1231 13.4643C21.859 13.4643 22.554 13.6438 23.1673 13.9729V5.19123L9.53947 8.37778V21.6925C9.53947 23.0812 9.03695 24.413 8.14245 25.3949C7.24795 26.3769 6.03475 26.9286 4.76974 26.9286C3.50472 26.9286 2.29152 26.3769 1.39702 25.3949C0.502524 24.413 0 23.0812 0 21.6925C0 20.3038 0.502524 18.9719 1.39702 17.99C2.29152 17.008 3.50472 16.4563 4.76974 16.4563C5.50564 16.4563 6.20066 16.6359 6.81391 16.965V4.48809L25.8929 0Z" fill="#434343"/>
</svg>
