<svg width="22" height="17" viewBox="0 0 22 17" fill="none" xmlns="http://www.w3.org/2000/svg">
<path d="M13.8947 0H0V2.42857H13.8947V0ZM13.8947 4.85714H0V7.28571H13.8947V4.85714ZM0 12.1429H9.26316V9.71429H0V12.1429ZM16.2105 0V9.93286C15.8516 9.79929 15.4579 9.71429 15.0526 9.71429C14.1314 9.71429 13.2478 10.0981 12.5964 10.7813C11.9449 11.4644 11.5789 12.391 11.5789 13.3571C11.5789 14.3233 11.9449 15.2499 12.5964 15.933C13.2478 16.6162 14.1314 17 15.0526 17C15.9739 17 16.8575 16.6162 17.5089 15.933C18.1603 15.2499 18.5263 14.3233 18.5263 13.3571V2.42857H22V0H16.2105Z" fill="white" fill-opacity="0.7"/>
</svg>
