<svg width="31" height="31" viewBox="0 0 31 31" fill="none" xmlns="http://www.w3.org/2000/svg">
<path d="M15.5 0C13.4645 0 11.449 0.400919 9.56841 1.17987C7.68786 1.95882 5.97915 3.10054 4.53984 4.53984C1.63303 7.44666 0 11.3891 0 15.5C0 19.6109 1.63303 23.5533 4.53984 26.4602C5.97915 27.8995 7.68786 29.0412 9.56841 29.8201C11.449 30.5991 13.4645 31 15.5 31C19.6109 31 23.5533 29.367 26.4602 26.4602C29.367 23.5533 31 19.6109 31 15.5C31 13.4645 30.5991 11.449 29.8201 9.56841C29.0412 7.68786 27.8995 5.97915 26.4602 4.53984C25.0208 3.10054 23.3121 1.95882 21.4316 1.17987C19.551 0.400919 17.5355 0 15.5 0ZM7.8585 25.234C8.525 23.839 12.586 22.475 15.5 22.475C18.414 22.475 22.475 23.839 23.1415 25.234C21.0335 26.908 18.383 27.9 15.5 27.9C12.617 27.9 9.9665 26.908 7.8585 25.234ZM25.358 22.9865C23.1415 20.2895 17.763 19.375 15.5 19.375C13.237 19.375 7.8585 20.2895 5.642 22.9865C4.061 20.925 3.1 18.321 3.1 15.5C3.1 8.6645 8.6645 3.1 15.5 3.1C22.3355 3.1 27.9 8.6645 27.9 15.5C27.9 18.321 26.939 20.925 25.358 22.9865ZM15.5 6.2C12.493 6.2 10.075 8.618 10.075 11.625C10.075 14.632 12.493 17.05 15.5 17.05C18.507 17.05 20.925 14.632 20.925 11.625C20.925 8.618 18.507 6.2 15.5 6.2ZM15.5 13.95C14.8834 13.95 14.292 13.705 13.856 13.269C13.42 12.833 13.175 12.2416 13.175 11.625C13.175 11.0084 13.42 10.417 13.856 9.98098C14.292 9.54495 14.8834 9.3 15.5 9.3C16.1166 9.3 16.708 9.54495 17.144 9.98098C17.58 10.417 17.825 11.0084 17.825 11.625C17.825 12.2416 17.58 12.833 17.144 13.269C16.708 13.705 16.1166 13.95 15.5 13.95Z" fill="#E8636E"/>
</svg>
