<svg width="15" height="15" viewBox="0 0 15 15" fill="none" xmlns="http://www.w3.org/2000/svg">
<path d="M12.3607 2.47059C11.0044 1.37255 9.24487 0.686275 7.30205 0.686275C3.89296 0.686275 1.01173 2.76569 0 5.64118L1.73021 6.17647C2.5 3.98725 4.69941 2.40196 7.30205 2.40196C8.73167 2.40196 10.0367 2.89608 11.0557 3.69216L8.40176 6.17647H15V0L12.3607 2.47059Z" fill="white"/>
<path d="M2.6393 12.5294C3.9956 13.6275 5.75513 14.3137 7.69795 14.3137C11.107 14.3137 13.9883 12.2343 15 9.35882L13.2698 8.82353C12.5 11.0127 10.3006 12.598 7.69795 12.598C6.26833 12.598 4.96334 12.1039 3.94428 11.3078L6.59824 8.82353L-1.97774e-07 8.82353L3.4219e-07 15L2.6393 12.5294Z" fill="white"/>
</svg>
